# xmcd
#
# Track frame offsets:
#	150
#	13625
#	28175
#	40329
#	57129
#	70604
#	80120
#	93470
#	109154
#	120479
#	134054
#	148717
#
# Disc length: 2182 seconds
#
# Revision: 0
# Processed by: cddbd v1.5.2PL0 Copyright (c) Steve Scherf et al.
# Submitted via: EasyCDDAExtractor 15.3.0.1
#
DISCID=a908840c
DTITLE=Thopper - Back on track
DYEAR=2013
DGENRE=country
TTITLE0=Strangers once again
TTITLE1=Did I open my eyes
TTITLE2=Anyone but you
TTITLE3=Just another trucker passing by
TTITLE4=She's the girl
TTITLE5=Back on track
TTITLE6=I'll be leaving Texas
TTITLE7=Rosa
TTITLE8=Ghosts
TTITLE9=Grandma's raising marijuana
TTITLE10=Too many honky tonks
TTITLE11=Miss you so
EXTD=
EXTT0=
EXTT1=
EXTT2=
EXTT3=
EXTT4=
EXTT5=
EXTT6=
EXTT7=
EXTT8=
EXTT9=
EXTT10=
EXTT11=
PLAYORDER=
